<svg width="35" height="35" viewBox="0 0 35 35" fill="none" xmlns="http://www.w3.org/2000/svg">
<rect width="34.622" height="34.622" rx="12.2195" fill="#E8E8E8"/>
<path d="M16.94 7.20995L14.53 12.82H12.12C11.72 12.82 11.33 12.85 10.95 12.93L11.95 10.53L11.99 10.44L12.05 10.28C12.08 10.21 12.1 10.15 12.13 10.1C13.29 7.40995 14.59 6.56995 16.94 7.20995Z" fill="#1A2B88"/>
<path d="M23.73 13.09L23.71 13.08C23.11 12.91 22.5 12.82 21.88 12.82H15.62L17.87 7.59002L17.9 7.52002C18.04 7.57002 18.19 7.64002 18.34 7.69002L20.55 8.62002C21.78 9.13002 22.64 9.66002 23.17 10.3C23.26 10.42 23.34 10.53 23.42 10.66C23.51 10.8 23.58 10.94 23.62 11.09C23.66 11.18 23.69 11.26 23.71 11.35C23.86 11.86 23.87 12.44 23.73 13.09Z" fill="#1A2B88"/>
<path d="M17.52 22.66H17.77C18.07 22.66 18.32 22.39 18.32 22.06C18.32 21.64 18.2 21.58 17.94 21.48L17.52 21.33V22.66Z" fill="#1A2B88"/>
<path d="M23.29 14.5199C22.84 14.3899 22.37 14.3199 21.88 14.3199H12.12C11.44 14.3199 10.8 14.4499 10.2 14.7099C8.45999 15.4599 7.23999 17.1899 7.23999 19.1999V21.1499C7.23999 21.3899 7.25999 21.6199 7.28999 21.8599C7.50999 25.0399 9.20999 26.7399 12.39 26.9499C12.62 26.9799 12.85 26.9999 13.1 26.9999H20.9C24.6 26.9999 26.55 25.2399 26.74 21.7399C26.75 21.5499 26.76 21.3499 26.76 21.1499V19.1999C26.76 16.9899 25.29 15.1299 23.29 14.5199ZM18.28 20.4999C18.74 20.6599 19.36 20.9999 19.36 22.0599C19.36 22.9699 18.65 23.6999 17.77 23.6999H17.52V23.9199C17.52 24.2099 17.29 24.4399 17 24.4399C16.71 24.4399 16.48 24.2099 16.48 23.9199V23.6999H16.39C15.43 23.6999 14.64 22.8899 14.64 21.8899C14.64 21.5999 14.87 21.3699 15.16 21.3699C15.45 21.3699 15.68 21.5999 15.68 21.8899C15.68 22.3099 16 22.6599 16.39 22.6599H16.48V20.9699L15.72 20.6999C15.26 20.5399 14.64 20.1999 14.64 19.1399C14.64 18.2299 15.35 17.4999 16.23 17.4999H16.48V17.2799C16.48 16.9899 16.71 16.7599 17 16.7599C17.29 16.7599 17.52 16.9899 17.52 17.2799V17.4999H17.61C18.57 17.4999 19.36 18.3099 19.36 19.3099C19.36 19.5999 19.13 19.8299 18.84 19.8299C18.55 19.8299 18.32 19.5999 18.32 19.3099C18.32 18.8899 18 18.5399 17.61 18.5399H17.52V20.2299L18.28 20.4999Z" fill="#1A2B88"/>
<path d="M15.68 19.14C15.68 19.56 15.8 19.62 16.06 19.72L16.48 19.87V18.54H16.23C15.92 18.54 15.68 18.81 15.68 19.14Z" fill="#1A2B88"/>
</svg>
