<svg width="22" height="22" viewBox="0 0 22 22" fill="none" xmlns="http://www.w3.org/2000/svg">
<path d="M18.8353 20.462H3.09986C2.74144 20.462 2.44421 20.1648 2.44421 19.8064C2.44421 19.448 2.74144 19.1508 3.09986 19.1508H18.8353C19.1938 19.1508 19.491 19.448 19.491 19.8064C19.491 20.1648 19.1938 20.462 18.8353 20.462Z" fill="#7B7B7B"/>
<path d="M5.37274 17.8394H3.97405C3.13483 17.8394 2.44421 17.1488 2.44421 16.3095V8.77398C2.44421 7.93475 3.13483 7.24414 3.97405 7.24414H5.37274C6.21197 7.24414 6.90258 7.93475 6.90258 8.77398V16.3095C6.90258 17.1488 6.21197 17.8394 5.37274 17.8394ZM3.97405 8.54668C3.85167 8.54668 3.7555 8.64284 3.7555 8.76523V16.3095C3.7555 16.4319 3.85167 16.5281 3.97405 16.5281H5.37274C5.49513 16.5281 5.59129 16.4319 5.59129 16.3095V8.77398C5.59129 8.65159 5.49513 8.55543 5.37274 8.55543H3.97405V8.54668Z" fill="#7B7B7B"/>
<path d="M11.6671 17.8394H10.2684C9.4292 17.8394 8.73859 17.1488 8.73859 16.3096V5.98541C8.73859 5.14618 9.4292 4.45557 10.2684 4.45557H11.6671C12.5064 4.45557 13.197 5.14618 13.197 5.98541V16.3096C13.197 17.1488 12.5064 17.8394 11.6671 17.8394ZM10.2684 5.76686C10.146 5.76686 10.0499 5.86302 10.0499 5.98541V16.3096C10.0499 16.432 10.146 16.5281 10.2684 16.5281H11.6671C11.7895 16.5281 11.8857 16.432 11.8857 16.3096V5.98541C11.8857 5.86302 11.7895 5.76686 11.6671 5.76686H10.2684Z" fill="#7B7B7B"/>
<path d="M17.9615 17.8396H16.5628C15.7236 17.8396 15.033 17.149 15.033 16.3097V3.19683C15.033 2.35761 15.7236 1.66699 16.5628 1.66699H17.9615C18.8007 1.66699 19.4913 2.35761 19.4913 3.19683V16.3097C19.4913 17.149 18.8007 17.8396 17.9615 17.8396ZM16.5628 2.97828C16.4404 2.97828 16.3442 3.07444 16.3442 3.19683V16.3097C16.3442 16.4321 16.4404 16.5283 16.5628 16.5283H17.9615C18.0839 16.5283 18.1801 16.4321 18.1801 16.3097V3.19683C18.1801 3.07444 18.0839 2.97828 17.9615 2.97828H16.5628Z" fill="#7B7B7B"/>
</svg>
