<svg width="22" height="22" viewBox="0 0 22 22" fill="none" xmlns="http://www.w3.org/2000/svg">
<path d="M2.22559 2.43201H3.74669C4.69082 2.43201 5.43388 3.24501 5.3552 4.18039L4.62962 12.8874C4.50723 14.3123 5.63493 15.5362 7.06861 15.5362H16.3788C17.6376 15.5362 18.7391 14.5046 18.8353 13.2545L19.3073 6.69807C19.4122 5.24691 18.3107 4.06675 16.8508 4.06675H5.56501" stroke="#7B7B7B" stroke-width="1.31129" stroke-miterlimit="10" stroke-linecap="round" stroke-linejoin="round"/>
<path d="M14.6828 19.9158C15.2864 19.9158 15.7756 19.4266 15.7756 18.8231C15.7756 18.2195 15.2864 17.7303 14.6828 17.7303C14.0793 17.7303 13.5901 18.2195 13.5901 18.8231C13.5901 19.4266 14.0793 19.9158 14.6828 19.9158Z" stroke="#7B7B7B" stroke-width="1.31129" stroke-miterlimit="10" stroke-linecap="round" stroke-linejoin="round"/>
<path d="M7.6893 19.9158C8.29281 19.9158 8.78204 19.4266 8.78204 18.8231C8.78204 18.2195 8.29281 17.7303 7.6893 17.7303C7.08579 17.7303 6.59656 18.2195 6.59656 18.8231C6.59656 19.4266 7.08579 19.9158 7.6893 19.9158Z" stroke="#7B7B7B" stroke-width="1.31129" stroke-miterlimit="10" stroke-linecap="round" stroke-linejoin="round"/>
<path d="M8.34491 7.67712H18.8352" stroke="#7B7B7B" stroke-width="1.31129" stroke-miterlimit="10" stroke-linecap="round" stroke-linejoin="round"/>
</svg>
