<svg width="22" height="21" viewBox="0 0 22 21" fill="none" xmlns="http://www.w3.org/2000/svg">
<path d="M8.48541 10.1774C8.45918 10.1774 8.4417 10.1774 8.41547 10.1774C8.37176 10.1687 8.31057 10.1687 8.25812 10.1774C5.72296 10.0988 3.80847 8.10561 3.80847 5.64913C3.80847 3.14893 5.84534 1.11206 8.34554 1.11206C10.8457 1.11206 12.8826 3.14893 12.8826 5.64913C12.8738 8.10561 10.9506 10.0988 8.51163 10.1774C8.50289 10.1774 8.49415 10.1774 8.48541 10.1774ZM8.34554 2.42335C6.57092 2.42335 5.11976 3.87451 5.11976 5.64913C5.11976 7.39751 6.4835 8.80496 8.22315 8.86616C8.2756 8.85742 8.38925 8.85742 8.50289 8.86616C10.2163 8.78748 11.5625 7.38003 11.5713 5.64913C11.5713 3.87451 10.1201 2.42335 8.34554 2.42335Z" fill="#7B7B7B"/>
<path d="M14.9368 10.2911C14.9105 10.2911 14.8843 10.2911 14.8581 10.2824C14.4997 10.3173 14.1325 10.0638 14.0975 9.70541C14.0626 9.34699 14.2811 9.02354 14.6395 8.97983C14.7444 8.97109 14.8581 8.97109 14.9542 8.97109C16.2306 8.90115 17.2271 7.85212 17.2271 6.56705C17.2271 5.23828 16.1519 4.16302 14.8231 4.16302C14.4647 4.17176 14.1675 3.87454 14.1675 3.51612C14.1675 3.1577 14.4647 2.86047 14.8231 2.86047C16.8687 2.86047 18.5384 4.53018 18.5384 6.5758C18.5384 8.58644 16.9649 10.2124 14.963 10.2911C14.9542 10.2911 14.9455 10.2911 14.9368 10.2911Z" fill="#7B7B7B"/>
<path d="M8.49332 19.7324C6.7799 19.7324 5.05774 19.2953 3.75519 18.4211C2.54006 17.6168 1.87567 16.5153 1.87567 15.3177C1.87567 14.12 2.54006 13.0098 3.75519 12.1968C6.37777 10.4572 10.6263 10.4572 13.2314 12.1968C14.4378 13.0011 15.111 14.1026 15.111 15.3002C15.111 16.4979 14.4466 17.6081 13.2314 18.4211C11.9201 19.2953 10.2067 19.7324 8.49332 19.7324ZM4.48077 13.2983C3.64154 13.8578 3.18696 14.5746 3.18696 15.3264C3.18696 16.0695 3.65028 16.7863 4.48077 17.3371C6.65751 18.797 10.3291 18.797 12.5059 17.3371C13.3451 16.7776 13.7997 16.0608 13.7997 15.309C13.7997 14.5659 13.3363 13.849 12.5059 13.2983C10.3291 11.8471 6.65751 11.8471 4.48077 13.2983Z" fill="#7B7B7B"/>
<path d="M16.5102 18.1589C16.2042 18.1589 15.9332 17.9491 15.872 17.6344C15.8021 17.2759 16.0294 16.935 16.379 16.8563C16.9298 16.7427 17.4368 16.5241 17.8302 16.2182C18.3285 15.8423 18.5995 15.3702 18.5995 14.8719C18.5995 14.3736 18.3285 13.9016 17.839 13.5344C17.4543 13.2372 16.9735 13.0274 16.4053 12.8962C16.0556 12.8176 15.8283 12.4679 15.907 12.1095C15.9857 11.7598 16.3353 11.5325 16.6938 11.6112C17.4456 11.7773 18.1012 12.0745 18.6345 12.4854C19.4475 13.0973 19.9108 13.9627 19.9108 14.8719C19.9108 15.7811 19.4387 16.6465 18.6257 17.2672C18.0837 17.6868 17.4019 17.9928 16.65 18.1414C16.5976 18.1589 16.5539 18.1589 16.5102 18.1589Z" fill="#7B7B7B"/>
</svg>
