<svg width="22" height="22" viewBox="0 0 22 22" fill="none" xmlns="http://www.w3.org/2000/svg">
<path d="M7.70691 20.1266H4.17517C2.41804 20.1266 1.57007 19.3136 1.57007 17.6351V3.82287C1.57007 2.14442 2.42678 1.33142 4.17517 1.33142H7.70691C9.46404 1.33142 10.312 2.14442 10.312 3.82287V17.6351C10.312 19.3136 9.45529 20.1266 7.70691 20.1266ZM4.17517 2.64271C3.06494 2.64271 2.88136 2.93994 2.88136 3.82287V17.6351C2.88136 18.5181 3.06494 18.8153 4.17517 18.8153H7.70691C8.81713 18.8153 9.00071 18.5181 9.00071 17.6351V3.82287C9.00071 2.93994 8.81713 2.64271 7.70691 2.64271H4.17517Z" fill="#7B7B7B"/>
<path d="M17.7601 12.2588H14.2284C12.4713 12.2588 11.6233 11.4458 11.6233 9.76739V3.82287C11.6233 2.14442 12.48 1.33142 14.2284 1.33142H17.7601C19.5173 1.33142 20.3652 2.14442 20.3652 3.82287V9.76739C20.3652 11.4458 19.5085 12.2588 17.7601 12.2588ZM14.2284 2.64271C13.1182 2.64271 12.9346 2.93994 12.9346 3.82287V9.76739C12.9346 10.6503 13.1182 10.9475 14.2284 10.9475H17.7601C18.8704 10.9475 19.0539 10.6503 19.0539 9.76739V3.82287C19.0539 2.93994 18.8704 2.64271 17.7601 2.64271H14.2284Z" fill="#7B7B7B"/>
<path d="M17.7601 20.1266H14.2284C12.4713 20.1266 11.6233 19.3136 11.6233 17.6352V16.0616C11.6233 14.3832 12.48 13.5702 14.2284 13.5702H17.7601C19.5173 13.5702 20.3652 14.3832 20.3652 16.0616V17.6352C20.3652 19.3136 19.5085 20.1266 17.7601 20.1266ZM14.2284 14.8815C13.1182 14.8815 12.9346 15.1787 12.9346 16.0616V17.6352C12.9346 18.5181 13.1182 18.8154 14.2284 18.8154H17.7601C18.8704 18.8154 19.0539 18.5181 19.0539 17.6352V16.0616C19.0539 15.1787 18.8704 14.8815 17.7601 14.8815H14.2284Z" fill="#7B7B7B"/>
</svg>
