<svg width="32" height="32" viewBox="0 0 32 32" fill="none" xmlns="http://www.w3.org/2000/svg">
<path d="M0.849976 16C0.849976 22.55 5.04998 28.1 10.85 30.15V1.84998C5.04998 3.89998 0.849976 9.44998 0.849976 16Z" fill="#75A843"/>
<path d="M30.85 16C30.85 9.44998 26.65 3.89998 20.85 1.84998V30.15C26.7 28.1 30.85 22.55 30.85 16Z" fill="#ED4C5C"/>
<path d="M10.85 30.15C12.4 30.7 14.1 31 15.85 31C17.6 31 19.3 30.7 20.85 30.15V1.85C19.3 1.3 17.6 1 15.85 1C14.1 1 12.4 1.3 10.85 1.85V30.15Z" fill="white"/>
</svg>
