<svg xmlns="http://www.w3.org/2000/svg" xmlns:xlink="http://www.w3.org/1999/xlink" width="500" zoomAndPan="magnify" viewBox="0 0 375 74.999997" height="100" preserveAspectRatio="xMidYMid meet" version="1.0"><defs><g/><clipPath id="id1"><path d="M 80 6.441406 L 142.804688 6.441406 L 142.804688 71.691406 L 80 71.691406 Z M 80 6.441406 " clip-rule="nonzero"/></clipPath><clipPath id="id2"><path d="M 90 6.441406 L 112 6.441406 L 112 40 L 90 40 Z M 90 6.441406 " clip-rule="nonzero"/></clipPath><clipPath id="id3"><path d="M 111.308594 29.523438 C 110.9375 29.152344 110.582031 28.761719 110.25 28.351562 C 109.917969 27.945312 109.605469 27.523438 109.3125 27.082031 C 109.023438 26.644531 108.75 26.195312 108.503906 25.726562 C 108.257812 25.261719 108.03125 24.789062 107.828125 24.300781 C 107.628906 23.8125 107.449219 23.316406 107.296875 22.8125 C 107.144531 22.308594 107.015625 21.796875 106.910156 21.28125 C 106.808594 20.761719 106.730469 20.242188 106.675781 19.714844 C 106.625 19.191406 106.597656 18.664062 106.597656 18.136719 C 106.59375 17.609375 106.617188 17.082031 106.667969 16.558594 C 106.71875 16.03125 106.792969 15.511719 106.894531 14.992188 C 106.992188 14.476562 107.117188 13.960938 107.269531 13.457031 C 107.417969 12.953125 107.59375 12.453125 107.792969 11.964844 C 107.992188 11.476562 108.210938 11 108.457031 10.535156 C 108.703125 10.066406 108.96875 9.613281 109.257812 9.171875 C 109.546875 8.734375 109.859375 8.308594 110.1875 7.898438 C 110.519531 7.488281 110.867188 7.097656 111.238281 6.71875 L 90.269531 27.671875 L 101.648438 39.113281 Z M 111.308594 29.523438 " clip-rule="nonzero"/></clipPath><linearGradient x1="42.625501" gradientTransform="matrix(6.309692, 0, 0, 6.344983, -152.021562, -165.266573)" y1="27.997501" x2="38.406" gradientUnits="userSpaceOnUse" y2="32.216998" id="id4"><stop stop-opacity="1" stop-color="rgb(0%, 32.199097%, 79.998779%)" offset="0"/><stop stop-opacity="1" stop-color="rgb(0%, 32.199097%, 79.998779%)" offset="0.25"/><stop stop-opacity="1" stop-color="rgb(0%, 32.199097%, 79.998779%)" offset="0.3125"/><stop stop-opacity="1" stop-color="rgb(0%, 32.199097%, 79.998779%)" offset="0.34375"/><stop stop-opacity="1" stop-color="rgb(0%, 32.199097%, 79.998779%)" offset="0.359375"/><stop stop-opacity="1" stop-color="rgb(0.0305176%, 32.240295%, 80.041504%)" offset="0.367187"/><stop stop-opacity="1" stop-color="rgb(0.202942%, 32.467651%, 80.273438%)" offset="0.375"/><stop stop-opacity="1" stop-color="rgb(0.486755%, 32.841492%, 80.653381%)" offset="0.382812"/><stop stop-opacity="1" stop-color="rgb(0.770569%, 33.213806%, 81.033325%)" offset="0.390625"/><stop stop-opacity="1" stop-color="rgb(1.054382%, 33.586121%, 81.414795%)" offset="0.395071"/><stop stop-opacity="1" stop-color="rgb(1.196289%, 33.772278%, 81.60553%)" offset="0.398438"/><stop stop-opacity="1" stop-color="rgb(1.33667%, 33.958435%, 81.794739%)" offset="0.40625"/><stop stop-opacity="1" stop-color="rgb(1.620483%, 34.332275%, 82.174683%)" offset="0.414062"/><stop stop-opacity="1" stop-color="rgb(1.904297%, 34.70459%, 82.554626%)" offset="0.421875"/><stop stop-opacity="1" stop-color="rgb(2.186584%, 35.076904%, 82.936096%)" offset="0.429688"/><stop stop-opacity="1" stop-color="rgb(2.470398%, 35.450745%, 83.31604%)" offset="0.4375"/><stop stop-opacity="1" stop-color="rgb(2.754211%, 35.823059%, 83.695984%)" offset="0.445312"/><stop stop-opacity="1" stop-color="rgb(3.036499%, 36.195374%, 84.075928%)" offset="0.453125"/><stop stop-opacity="1" stop-color="rgb(3.320312%, 36.567688%, 84.457397%)" offset="0.460938"/><stop stop-opacity="1" stop-color="rgb(3.604126%, 36.941528%, 84.837341%)" offset="0.46875"/><stop stop-opacity="1" stop-color="rgb(3.886414%, 37.313843%, 85.217285%)" offset="0.476562"/><stop stop-opacity="1" stop-color="rgb(4.170227%, 37.686157%, 85.598755%)" offset="0.484375"/><stop stop-opacity="1" stop-color="rgb(4.454041%, 38.058472%, 85.978699%)" offset="0.492188"/><stop stop-opacity="1" stop-color="rgb(4.737854%, 38.432312%, 86.358643%)" offset="0.5"/><stop stop-opacity="1" stop-color="rgb(5.020142%, 38.804626%, 86.738586%)" offset="0.507812"/><stop stop-opacity="1" stop-color="rgb(5.303955%, 39.176941%, 87.120056%)" offset="0.515625"/><stop stop-opacity="1" stop-color="rgb(5.587769%, 39.549255%, 87.5%)" offset="0.523438"/><stop stop-opacity="1" stop-color="rgb(5.870056%, 39.923096%, 87.879944%)" offset="0.53125"/><stop stop-opacity="1" stop-color="rgb(6.15387%, 40.29541%, 88.259888%)" offset="0.539062"/><stop stop-opacity="1" stop-color="rgb(6.437683%, 40.667725%, 88.641357%)" offset="0.546875"/><stop stop-opacity="1" stop-color="rgb(6.719971%, 41.041565%, 89.021301%)" offset="0.554688"/><stop stop-opacity="1" stop-color="rgb(7.003784%, 41.413879%, 89.401245%)" offset="0.5625"/><stop stop-opacity="1" stop-color="rgb(7.287598%, 41.786194%, 89.781189%)" offset="0.570312"/><stop stop-opacity="1" stop-color="rgb(7.571411%, 42.158508%, 90.162659%)" offset="0.578125"/><stop stop-opacity="1" stop-color="rgb(7.853699%, 42.532349%, 90.542603%)" offset="0.585938"/><stop stop-opacity="1" stop-color="rgb(8.137512%, 42.904663%, 90.922546%)" offset="0.59375"/><stop stop-opacity="1" stop-color="rgb(8.421326%, 43.276978%, 91.30249%)" offset="0.601562"/><stop stop-opacity="1" stop-color="rgb(8.703613%, 43.649292%, 91.68396%)" offset="0.604929"/><stop stop-opacity="1" stop-color="rgb(8.84552%, 43.836975%, 91.874695%)" offset="0.609375"/><stop stop-opacity="1" stop-color="rgb(8.987427%, 44.023132%, 92.063904%)" offset="0.617188"/><stop stop-opacity="1" stop-color="rgb(9.27124%, 44.395447%, 92.443848%)" offset="0.625"/><stop stop-opacity="1" stop-color="rgb(9.553528%, 44.767761%, 92.823792%)" offset="0.632812"/><stop stop-opacity="1" stop-color="rgb(9.837341%, 45.141602%, 93.205261%)" offset="0.640625"/><stop stop-opacity="1" stop-color="rgb(10.121155%, 45.513916%, 93.585205%)" offset="0.648438"/><stop stop-opacity="1" stop-color="rgb(10.403442%, 45.88623%, 93.965149%)" offset="0.65625"/><stop stop-opacity="1" stop-color="rgb(10.687256%, 46.258545%, 94.345093%)" offset="0.664062"/><stop stop-opacity="1" stop-color="rgb(10.971069%, 46.632385%, 94.726562%)" offset="0.671875"/><stop stop-opacity="1" stop-color="rgb(11.254883%, 47.0047%, 95.106506%)" offset="0.679688"/><stop stop-opacity="1" stop-color="rgb(11.53717%, 47.377014%, 95.48645%)" offset="0.6875"/><stop stop-opacity="1" stop-color="rgb(11.820984%, 47.749329%, 95.866394%)" offset="0.695312"/><stop stop-opacity="1" stop-color="rgb(12.104797%, 48.123169%, 96.247864%)" offset="0.703125"/><stop stop-opacity="1" stop-color="rgb(12.387085%, 48.495483%, 96.627808%)" offset="0.710938"/><stop stop-opacity="1" stop-color="rgb(12.670898%, 48.867798%, 97.007751%)" offset="0.71875"/><stop stop-opacity="1" stop-color="rgb(12.954712%, 49.240112%, 97.387695%)" offset="0.726562"/><stop stop-opacity="1" stop-color="rgb(13.237%, 49.613953%, 97.769165%)" offset="0.734375"/><stop stop-opacity="1" stop-color="rgb(13.520813%, 49.986267%, 98.149109%)" offset="0.742188"/><stop stop-opacity="1" stop-color="rgb(13.804626%, 50.358582%, 98.529053%)" offset="0.75"/><stop stop-opacity="1" stop-color="rgb(14.086914%, 50.732422%, 98.908997%)" offset="0.757812"/><stop stop-opacity="1" stop-color="rgb(14.370728%, 51.104736%, 99.290466%)" offset="0.765625"/><stop stop-opacity="1" stop-color="rgb(14.654541%, 51.477051%, 99.67041%)" offset="0.773438"/><stop stop-opacity="1" stop-color="rgb(14.846802%, 51.730347%, 99.92981%)" offset="0.78125"/><stop stop-opacity="1" stop-color="rgb(14.898682%, 51.799011%, 100%)" offset="0.8125"/><stop stop-opacity="1" stop-color="rgb(14.898682%, 51.799011%, 100%)" offset="0.875"/><stop stop-opacity="1" stop-color="rgb(14.898682%, 51.799011%, 100%)" offset="1"/></linearGradient><clipPath id="id5"><path d="M 111 39 L 133 39 L 133 71.691406 L 111 71.691406 Z M 111 39 " clip-rule="nonzero"/></clipPath><clipPath id="id6"><path d="M 120.886719 39.042969 L 111.308594 48.671875 C 111.679688 49.046875 112.035156 49.441406 112.367188 49.851562 C 112.703125 50.257812 113.015625 50.683594 113.308594 51.125 C 113.601562 51.566406 113.871094 52.019531 114.121094 52.488281 C 114.371094 52.953125 114.59375 53.433594 114.796875 53.921875 C 114.996094 54.410156 115.175781 54.910156 115.328125 55.417969 C 115.480469 55.925781 115.609375 56.4375 115.710938 56.957031 C 115.816406 57.476562 115.890625 58 115.945312 58.527344 C 115.996094 59.054688 116.023438 59.582031 116.023438 60.113281 C 116.023438 60.644531 115.996094 61.171875 115.945312 61.699219 C 115.890625 62.226562 115.816406 62.75 115.710938 63.269531 C 115.609375 63.789062 115.480469 64.304688 115.328125 64.808594 C 115.175781 65.316406 114.996094 65.816406 114.796875 66.304688 C 114.59375 66.792969 114.371094 67.273438 114.121094 67.742188 C 113.871094 68.207031 113.601562 68.660156 113.308594 69.101562 C 113.015625 69.542969 112.703125 69.96875 112.367188 70.378906 C 112.035156 70.785156 111.679688 71.179688 111.308594 71.554688 L 132.253906 50.488281 Z M 120.886719 39.042969 " clip-rule="nonzero"/></clipPath><linearGradient x1="40.832497" gradientTransform="matrix(6.309692, 0, 0, 6.344983, -152.021562, -165.266573)" y1="36.422498" x2="45.0545" gradientUnits="userSpaceOnUse" y2="32.200503" id="id7"><stop stop-opacity="1" stop-color="rgb(0%, 32.199097%, 79.998779%)" offset="0"/><stop stop-opacity="1" stop-color="rgb(0%, 32.199097%, 79.998779%)" offset="0.25"/><stop stop-opacity="1" stop-color="rgb(0.0549316%, 32.272339%, 80.073547%)" offset="0.375"/><stop stop-opacity="1" stop-color="rgb(0.253296%, 32.531738%, 80.33905%)" offset="0.382813"/><stop stop-opacity="1" stop-color="rgb(0.537109%, 32.905579%, 80.72052%)" offset="0.390625"/><stop stop-opacity="1" stop-color="rgb(0.820923%, 33.279419%, 81.10199%)" offset="0.393179"/><stop stop-opacity="1" stop-color="rgb(0.96283%, 33.467102%, 81.292725%)" offset="0.398438"/><stop stop-opacity="1" stop-color="rgb(1.104736%, 33.653259%, 81.483459%)" offset="0.40625"/><stop stop-opacity="1" stop-color="rgb(1.38855%, 34.0271%, 81.864929%)" offset="0.414063"/><stop stop-opacity="1" stop-color="rgb(1.672363%, 34.40094%, 82.246399%)" offset="0.421875"/><stop stop-opacity="1" stop-color="rgb(1.957703%, 34.773254%, 82.627869%)" offset="0.429688"/><stop stop-opacity="1" stop-color="rgb(2.241516%, 35.147095%, 83.007812%)" offset="0.4375"/><stop stop-opacity="1" stop-color="rgb(2.52533%, 35.520935%, 83.389282%)" offset="0.445313"/><stop stop-opacity="1" stop-color="rgb(2.809143%, 35.894775%, 83.770752%)" offset="0.453125"/><stop stop-opacity="1" stop-color="rgb(3.092957%, 36.268616%, 84.152222%)" offset="0.460938"/><stop stop-opacity="1" stop-color="rgb(3.37677%, 36.642456%, 84.533691%)" offset="0.46875"/><stop stop-opacity="1" stop-color="rgb(3.660583%, 37.016296%, 84.915161%)" offset="0.476563"/><stop stop-opacity="1" stop-color="rgb(3.945923%, 37.390137%, 85.296631%)" offset="0.484375"/><stop stop-opacity="1" stop-color="rgb(4.229736%, 37.763977%, 85.678101%)" offset="0.492188"/><stop stop-opacity="1" stop-color="rgb(4.51355%, 38.136292%, 86.058044%)" offset="0.5"/><stop stop-opacity="1" stop-color="rgb(4.797363%, 38.510132%, 86.439514%)" offset="0.507812"/><stop stop-opacity="1" stop-color="rgb(5.081177%, 38.883972%, 86.820984%)" offset="0.515625"/><stop stop-opacity="1" stop-color="rgb(5.36499%, 39.257812%, 87.202454%)" offset="0.523438"/><stop stop-opacity="1" stop-color="rgb(5.65033%, 39.631653%, 87.583923%)" offset="0.53125"/><stop stop-opacity="1" stop-color="rgb(5.934143%, 40.005493%, 87.965393%)" offset="0.539063"/><stop stop-opacity="1" stop-color="rgb(6.217957%, 40.379333%, 88.346863%)" offset="0.546875"/><stop stop-opacity="1" stop-color="rgb(6.50177%, 40.753174%, 88.728333%)" offset="0.554688"/><stop stop-opacity="1" stop-color="rgb(6.785583%, 41.125488%, 89.108276%)" offset="0.5625"/><stop stop-opacity="1" stop-color="rgb(7.069397%, 41.499329%, 89.489746%)" offset="0.570312"/><stop stop-opacity="1" stop-color="rgb(7.35321%, 41.873169%, 89.871216%)" offset="0.578125"/><stop stop-opacity="1" stop-color="rgb(7.63855%, 42.247009%, 90.252686%)" offset="0.585938"/><stop stop-opacity="1" stop-color="rgb(7.922363%, 42.62085%, 90.634155%)" offset="0.59375"/><stop stop-opacity="1" stop-color="rgb(8.206177%, 42.99469%, 91.015625%)" offset="0.601563"/><stop stop-opacity="1" stop-color="rgb(8.48999%, 43.36853%, 91.397095%)" offset="0.606821"/><stop stop-opacity="1" stop-color="rgb(8.631897%, 43.556213%, 91.58783%)" offset="0.609375"/><stop stop-opacity="1" stop-color="rgb(8.773804%, 43.742371%, 91.778564%)" offset="0.617188"/><stop stop-opacity="1" stop-color="rgb(9.057617%, 44.114685%, 92.158508%)" offset="0.625"/><stop stop-opacity="1" stop-color="rgb(9.342957%, 44.488525%, 92.539978%)" offset="0.632812"/><stop stop-opacity="1" stop-color="rgb(9.62677%, 44.862366%, 92.921448%)" offset="0.640625"/><stop stop-opacity="1" stop-color="rgb(9.910583%, 45.236206%, 93.302917%)" offset="0.648438"/><stop stop-opacity="1" stop-color="rgb(10.194397%, 45.610046%, 93.684387%)" offset="0.65625"/><stop stop-opacity="1" stop-color="rgb(10.47821%, 45.983887%, 94.065857%)" offset="0.664063"/><stop stop-opacity="1" stop-color="rgb(10.762024%, 46.357727%, 94.447327%)" offset="0.671875"/><stop stop-opacity="1" stop-color="rgb(11.047363%, 46.731567%, 94.828796%)" offset="0.679687"/><stop stop-opacity="1" stop-color="rgb(11.331177%, 47.103882%, 95.20874%)" offset="0.6875"/><stop stop-opacity="1" stop-color="rgb(11.61499%, 47.477722%, 95.59021%)" offset="0.695312"/><stop stop-opacity="1" stop-color="rgb(11.898804%, 47.851562%, 95.97168%)" offset="0.703125"/><stop stop-opacity="1" stop-color="rgb(12.182617%, 48.225403%, 96.353149%)" offset="0.710938"/><stop stop-opacity="1" stop-color="rgb(12.466431%, 48.599243%, 96.734619%)" offset="0.71875"/><stop stop-opacity="1" stop-color="rgb(12.750244%, 48.973083%, 97.116089%)" offset="0.726563"/><stop stop-opacity="1" stop-color="rgb(13.035583%, 49.346924%, 97.497559%)" offset="0.734375"/><stop stop-opacity="1" stop-color="rgb(13.319397%, 49.720764%, 97.879028%)" offset="0.742188"/><stop stop-opacity="1" stop-color="rgb(13.60321%, 50.093079%, 98.258972%)" offset="0.75"/><stop stop-opacity="1" stop-color="rgb(13.887024%, 50.466919%, 98.640442%)" offset="0.757812"/><stop stop-opacity="1" stop-color="rgb(14.170837%, 50.840759%, 99.021912%)" offset="0.765625"/><stop stop-opacity="1" stop-color="rgb(14.454651%, 51.2146%, 99.403381%)" offset="0.773438"/><stop stop-opacity="1" stop-color="rgb(14.73999%, 51.58844%, 99.784851%)" offset="0.78125"/><stop stop-opacity="1" stop-color="rgb(14.889526%, 51.786804%, 99.987793%)" offset="0.8125"/><stop stop-opacity="1" stop-color="rgb(14.898682%, 51.799011%, 100%)" offset="0.875"/><stop stop-opacity="1" stop-color="rgb(14.898682%, 51.799011%, 100%)" offset="1"/></linearGradient></defs><path fill="#ffffff" d="M 0.0078125 0 L 380.242188 0 L 380.242188 78 L 0.0078125 78 L 0.0078125 0 " fill-opacity="1" fill-rule="nonzero"/><g fill="#0052cc" fill-opacity="1"><g transform="translate(152.55184, 58.003774)"><g><path d="M 31.90625 -38.328125 L 31.90625 -29.84375 L 21.6875 -29.84375 L 21.6875 0 L 11.03125 0 L 11.03125 -29.84375 L 0.921875 -29.84375 L 0.921875 -38.328125 Z M 31.90625 -38.328125 "/></g></g></g><g fill="#0052cc" fill-opacity="1"><g transform="translate(185.380187, 58.003774)"><g><path d="M 13.703125 -29.78125 L 13.703125 -23.53125 L 25.921875 -23.53125 L 25.921875 -15.4375 L 13.703125 -15.4375 L 13.703125 -8.53125 L 27.5625 -8.53125 L 27.5625 0 L 3.046875 0 L 3.046875 -38.328125 L 27.5625 -38.328125 L 27.5625 -29.78125 Z M 13.703125 -29.78125 "/></g></g></g><g fill="#0052cc" fill-opacity="1"><g transform="translate(215.164841, 58.003774)"><g><path d="M 17.5 0.375 C 13.039062 0.375 9.378906 -0.679688 6.515625 -2.796875 C 3.660156 -4.921875 2.125 -7.957031 1.90625 -11.90625 L 13.265625 -11.90625 C 13.367188 -10.5625 13.765625 -9.582031 14.453125 -8.96875 C 15.148438 -8.351562 16.039062 -8.046875 17.125 -8.046875 C 18.101562 -8.046875 18.910156 -8.289062 19.546875 -8.78125 C 20.179688 -9.269531 20.5 -9.945312 20.5 -10.8125 C 20.5 -11.9375 19.972656 -12.804688 18.921875 -13.421875 C 17.867188 -14.035156 16.164062 -14.726562 13.8125 -15.5 C 11.3125 -16.332031 9.289062 -17.132812 7.75 -17.90625 C 6.207031 -18.6875 4.863281 -19.828125 3.71875 -21.328125 C 2.582031 -22.835938 2.015625 -24.804688 2.015625 -27.234375 C 2.015625 -29.703125 2.628906 -31.8125 3.859375 -33.5625 C 5.085938 -35.320312 6.789062 -36.65625 8.96875 -37.5625 C 11.144531 -38.46875 13.609375 -38.921875 16.359375 -38.921875 C 20.816406 -38.921875 24.378906 -37.878906 27.046875 -35.796875 C 29.710938 -33.710938 31.132812 -30.785156 31.3125 -27.015625 L 19.734375 -27.015625 C 19.691406 -28.171875 19.335938 -29.039062 18.671875 -29.625 C 18.003906 -30.207031 17.144531 -30.5 16.09375 -30.5 C 15.289062 -30.5 14.632812 -30.257812 14.125 -29.78125 C 13.625 -29.3125 13.375 -28.644531 13.375 -27.78125 C 13.375 -27.050781 13.65625 -26.421875 14.21875 -25.890625 C 14.78125 -25.367188 15.476562 -24.914062 16.3125 -24.53125 C 17.144531 -24.15625 18.375 -23.679688 20 -23.109375 C 22.425781 -22.273438 24.425781 -21.445312 26 -20.625 C 27.582031 -19.8125 28.941406 -18.671875 30.078125 -17.203125 C 31.222656 -15.734375 31.796875 -13.878906 31.796875 -11.640625 C 31.796875 -9.347656 31.222656 -7.296875 30.078125 -5.484375 C 28.941406 -3.671875 27.296875 -2.238281 25.140625 -1.1875 C 22.984375 -0.144531 20.4375 0.375 17.5 0.375 Z M 17.5 0.375 "/></g></g></g><g fill="#0052cc" fill-opacity="1"><g transform="translate(248.862814, 58.003774)"><g><path d="M 31.90625 -38.328125 L 31.90625 -29.84375 L 21.6875 -29.84375 L 21.6875 0 L 11.03125 0 L 11.03125 -29.84375 L 0.921875 -29.84375 L 0.921875 -38.328125 Z M 31.90625 -38.328125 "/></g></g></g><g fill="#0052cc" fill-opacity="1"><g transform="translate(281.680736, 58.003774)"><g/></g></g><g clip-path="url(#id1)"><path fill="#2684ff" d="M 141.808594 37.253906 L 111.308594 6.582031 L 80.804688 37.253906 C 80.566406 37.492188 80.382812 37.773438 80.253906 38.085938 C 80.125 38.402344 80.058594 38.730469 80.058594 39.070312 C 80.058594 39.410156 80.125 39.738281 80.253906 40.054688 C 80.382812 40.367188 80.566406 40.648438 80.804688 40.886719 L 111.308594 71.558594 L 141.808594 40.886719 C 142.046875 40.648438 142.230469 40.367188 142.359375 40.054688 C 142.488281 39.738281 142.554688 39.410156 142.554688 39.070312 C 142.554688 38.730469 142.488281 38.402344 142.359375 38.085938 C 142.230469 37.773438 142.046875 37.492188 141.808594 37.253906 Z M 111.308594 48.671875 L 101.753906 39.066406 L 111.308594 29.460938 L 120.859375 39.066406 Z M 111.308594 48.671875 " fill-opacity="1" fill-rule="nonzero"/></g><g clip-path="url(#id2)"><g clip-path="url(#id3)"><path fill="url(#id4)" d="M 90.269531 6.71875 L 90.269531 39.113281 L 111.308594 39.113281 L 111.308594 6.71875 Z M 90.269531 6.71875 " fill-rule="nonzero"/></g></g><g clip-path="url(#id5)"><g clip-path="url(#id6)"><path fill="url(#id7)" d="M 111.308594 39.042969 L 111.308594 71.554688 L 132.253906 71.554688 L 132.253906 39.042969 Z M 111.308594 39.042969 " fill-rule="nonzero"/></g></g></svg>