<svg width="18" height="21" viewBox="0 0 18 21" fill="none" xmlns="http://www.w3.org/2000/svg">
<path d="M7.146 2.11272C7.29541 1.75882 7.5517 1.45574 7.88202 1.24233C8.21234 1.02893 8.60163 0.914917 9 0.914917C9.39837 0.914917 9.78766 1.02893 10.118 1.24233C10.4483 1.45574 10.7046 1.75882 10.854 2.11272C12.3328 2.50245 13.6371 3.34662 14.5668 4.51558C15.4964 5.68453 15.9999 7.11363 16 8.58338V13.0847L17.832 15.7182C17.9325 15.8625 17.9902 16.0303 17.999 16.2036C18.0078 16.3768 17.9673 16.5492 17.8819 16.7022C17.7965 16.8551 17.6693 16.983 17.514 17.0722C17.3587 17.1613 17.181 17.2084 17 17.2084H12.465C12.3446 18.0068 11.9281 18.7369 11.2917 19.2649C10.6553 19.793 9.84176 20.0836 9 20.0836C8.15824 20.0836 7.34466 19.793 6.7083 19.2649C6.07193 18.7369 5.6554 18.0068 5.535 17.2084H0.999997C0.818954 17.2084 0.6413 17.1613 0.485988 17.0722C0.330676 16.983 0.203533 16.8551 0.118123 16.7022C0.0327134 16.5492 -0.00775834 16.3768 0.00102526 16.2036C0.00980886 16.0303 0.0675184 15.8625 0.167997 15.7182L2 13.0847V8.58338C2 5.49372 4.18 2.89088 7.146 2.11272ZM7.586 17.2084C7.68928 17.4888 7.88078 17.7317 8.13412 17.9035C8.38746 18.0752 8.69016 18.1675 9.0005 18.1675C9.31084 18.1675 9.61353 18.0752 9.86687 17.9035C10.1202 17.7317 10.3117 17.4888 10.415 17.2084H7.585H7.586ZM9 3.79172C7.67391 3.79172 6.40215 4.29655 5.46446 5.19516C4.52678 6.09377 4 7.31255 4 8.58338V13.375C4.00004 13.5644 3.94158 13.7494 3.832 13.9069L2.869 15.2917H15.13L14.167 13.9069C14.0578 13.7493 13.9997 13.5643 14 13.375V8.58338C14 7.31255 13.4732 6.09377 12.5355 5.19516C11.5978 4.29655 10.3261 3.79172 9 3.79172V3.79172Z" fill="black"/>
</svg>
