<svg width="22" height="22" viewBox="0 0 22 22" fill="none" xmlns="http://www.w3.org/2000/svg">
<path d="M10.967 11.7559C10.8533 11.7559 10.7397 11.7296 10.6348 11.6684L2.91561 7.20131C2.6009 7.01773 2.49598 6.61558 2.67956 6.30087C2.86314 5.98616 3.25653 5.88124 3.57998 6.06482L10.967 10.3397L18.3101 6.09107C18.6248 5.90749 19.0269 6.02115 19.2105 6.32712C19.3941 6.64183 19.2806 7.04393 18.9746 7.22751L11.3079 11.6684C11.1943 11.7209 11.0806 11.7559 10.967 11.7559Z" fill="#7B7B7B"/>
<path d="M10.9675 19.6761C10.6091 19.6761 10.3118 19.3789 10.3118 19.0205V11.0916C10.3118 10.7331 10.6091 10.4359 10.9675 10.4359C11.3259 10.4359 11.6231 10.7331 11.6231 11.0916V19.0205C11.6231 19.3789 11.3259 19.6761 10.9675 19.6761Z" fill="#7B7B7B"/>
<path d="M10.968 20.0171C10.1987 20.0171 9.43817 19.851 8.83498 19.5188L4.16679 16.9224C2.89921 16.2231 1.91138 14.5359 1.91138 13.0847V8.14552C1.91138 6.69436 2.89921 5.01594 4.16679 4.30784L8.83498 1.72021C10.0326 1.05583 11.9034 1.05583 13.101 1.72021L17.7692 4.31654C19.0368 5.0159 20.0247 6.70311 20.0247 8.15427V13.0935C20.0247 14.5446 19.0368 16.2231 17.7692 16.9312L13.101 19.5188C12.4978 19.851 11.7373 20.0171 10.968 20.0171ZM10.968 2.53321C10.4173 2.53321 9.87526 2.64686 9.47313 2.86541L4.80496 5.46174C3.96573 5.9338 3.22267 7.18392 3.22267 8.15427V13.0935C3.22267 14.0551 3.96573 15.3139 4.80496 15.786L9.47313 18.3823C10.2686 18.8282 11.6674 18.8282 12.4629 18.3823L17.1311 15.786C17.9703 15.3139 18.7134 14.0638 18.7134 13.0935V8.15427C18.7134 7.19266 17.9703 5.9338 17.1311 5.46174L12.4629 2.86541C12.0607 2.64686 11.5187 2.53321 10.968 2.53321Z" fill="#7B7B7B"/>
<path d="M15.3395 12.3591C14.9811 12.3591 14.6839 12.0619 14.6839 11.7034V8.88862L6.71121 4.29034C6.3965 4.10676 6.29157 3.70461 6.47516 3.39864C6.65874 3.08393 7.05214 2.97901 7.36685 3.16259L15.663 7.95321C15.864 8.06686 15.9952 8.28537 15.9952 8.5214V11.721C15.9952 12.0619 15.6979 12.3591 15.3395 12.3591Z" fill="#7B7B7B"/>
</svg>
