<svg width="36" height="35" viewBox="0 0 36 35" fill="none" xmlns="http://www.w3.org/2000/svg">
<rect x="0.982422" y="0.29248" width="34.622" height="34.622" rx="12.2195" fill="#E8E8E8"/>
<path d="M25.722 14.7645C25.0966 14.0738 24.1539 13.6724 22.8471 13.5324V12.823C22.8471 11.5442 22.3057 10.312 21.3536 9.45327C20.3921 8.57584 19.1413 8.16513 17.8438 8.28648C15.613 8.50117 13.7368 10.6574 13.7368 12.991V13.5324C12.43 13.6724 11.4872 14.0738 10.8618 14.7645C9.95636 15.7726 9.98437 17.1167 10.087 18.0502L10.7404 23.2494C10.9365 25.0696 11.6739 26.9365 15.6877 26.9365H20.8962C24.9099 26.9365 25.6474 25.0696 25.8434 23.2587L26.4968 18.0408C26.5995 17.1167 26.6275 15.7726 25.722 14.7645ZM17.9745 9.58395C18.908 9.49995 19.7947 9.78931 20.4855 10.4147C21.1669 11.0308 21.5496 11.9082 21.5496 12.823V13.4764H15.0342V12.991C15.0342 11.3295 16.4064 9.7333 17.9745 9.58395ZM18.2919 23.7441C16.3411 23.7441 14.7542 22.1573 14.7542 20.2064C14.7542 18.2555 16.3411 16.6687 18.2919 16.6687C20.2428 16.6687 21.8296 18.2555 21.8296 20.2064C21.8296 22.1573 20.2428 23.7441 18.2919 23.7441Z" fill="#1A2B88"/>
<path d="M17.7586 21.935C17.5812 21.935 17.4038 21.8696 17.2638 21.7296L16.3397 20.8055C16.069 20.5348 16.069 20.0868 16.3397 19.8161C16.6104 19.5454 17.0585 19.5454 17.3292 19.8161L17.7772 20.2641L19.2707 18.8827C19.5507 18.6213 19.9988 18.64 20.2602 18.92C20.5215 19.2 20.5029 19.6481 20.2228 19.9094L18.2346 21.7483C18.0946 21.8696 17.9266 21.935 17.7586 21.935Z" fill="#1A2B88"/>
</svg>
