<svg width="20" height="20" viewBox="0 0 20 20" fill="none" xmlns="http://www.w3.org/2000/svg">
<path d="M9.99988 13.125C8.27488 13.125 6.87488 11.725 6.87488 10C6.87488 8.275 8.27488 6.875 9.99988 6.875C11.7249 6.875 13.1249 8.275 13.1249 10C13.1249 11.725 11.7249 13.125 9.99988 13.125ZM9.99988 8.125C8.96654 8.125 8.12488 8.96667 8.12488 10C8.12488 11.0333 8.96654 11.875 9.99988 11.875C11.0332 11.875 11.8749 11.0333 11.8749 10C11.8749 8.96667 11.0332 8.125 9.99988 8.125Z" fill="#7B7B7B"/>
<path d="M12.6749 18.4916C12.4999 18.4916 12.3249 18.4666 12.1499 18.425C11.6332 18.2833 11.1999 17.9583 10.9249 17.5L10.8249 17.3333C10.3332 16.4833 9.65823 16.4833 9.16656 17.3333L9.0749 17.4916C8.7999 17.9583 8.36657 18.2916 7.8499 18.425C7.3249 18.5666 6.78323 18.4916 6.3249 18.2166L4.89157 17.3916C4.38323 17.1 4.01657 16.625 3.85823 16.05C3.70823 15.475 3.78323 14.8833 4.0749 14.375C4.31657 13.95 4.38323 13.5666 4.24157 13.325C4.0999 13.0833 3.74157 12.9416 3.2499 12.9416C2.03323 12.9416 1.04156 11.95 1.04156 10.7333V9.26662C1.04156 8.04995 2.03323 7.05829 3.2499 7.05829C3.74157 7.05829 4.0999 6.91662 4.24157 6.67495C4.38323 6.43329 4.3249 6.04995 4.0749 5.62495C3.78323 5.11662 3.70823 4.51662 3.85823 3.94995C4.00823 3.37495 4.3749 2.89995 4.89157 2.60829L6.33323 1.78329C7.2749 1.22495 8.51656 1.54995 9.08323 2.50829L9.18323 2.67495C9.6749 3.52495 10.3499 3.52495 10.8416 2.67495L10.9332 2.51662C11.4999 1.54995 12.7416 1.22495 13.6916 1.79162L15.1249 2.61662C15.6332 2.90829 15.9999 3.38329 16.1582 3.95829C16.3082 4.53329 16.2332 5.12495 15.9416 5.63329C15.6999 6.05829 15.6332 6.44162 15.7749 6.68329C15.9166 6.92495 16.2749 7.06662 16.7666 7.06662C17.9832 7.06662 18.9749 8.05829 18.9749 9.27495V10.7416C18.9749 11.9583 17.9832 12.95 16.7666 12.95C16.2749 12.95 15.9166 13.0916 15.7749 13.3333C15.6332 13.575 15.6916 13.9583 15.9416 14.3833C16.2332 14.8916 16.3166 15.4916 16.1582 16.0583C16.0082 16.6333 15.6416 17.1083 15.1249 17.4L13.6832 18.225C13.3666 18.4 13.0249 18.4916 12.6749 18.4916ZM9.9999 15.4083C10.7416 15.4083 11.4332 15.875 11.9082 16.7L11.9999 16.8583C12.0999 17.0333 12.2666 17.1583 12.4666 17.2083C12.6666 17.2583 12.8666 17.2333 13.0332 17.1333L14.4749 16.3C14.6916 16.175 14.8582 15.9666 14.9249 15.7166C14.9916 15.4666 14.9582 15.2083 14.8332 14.9916C14.3582 14.175 14.2999 13.3333 14.6666 12.6916C15.0332 12.05 15.7916 11.6833 16.7416 11.6833C17.2749 11.6833 17.6999 11.2583 17.6999 10.725V9.25829C17.6999 8.73329 17.2749 8.29995 16.7416 8.29995C15.7916 8.29995 15.0332 7.93329 14.6666 7.29162C14.2999 6.64995 14.3582 5.80829 14.8332 4.99162C14.9582 4.77495 14.9916 4.51662 14.9249 4.26662C14.8582 4.01662 14.6999 3.81662 14.4832 3.68329L13.0416 2.85829C12.6832 2.64162 12.2082 2.76662 11.9916 3.13329L11.8999 3.29162C11.4249 4.11662 10.7332 4.58329 9.99156 4.58329C9.2499 4.58329 8.55823 4.11662 8.08323 3.29162L7.99157 3.12495C7.78323 2.77495 7.31657 2.64995 6.95823 2.85829L5.51656 3.69162C5.2999 3.81662 5.13323 4.02495 5.06657 4.27495C4.9999 4.52495 5.03323 4.78329 5.15823 4.99995C5.63323 5.81662 5.69157 6.65829 5.3249 7.29995C4.95823 7.94162 4.1999 8.30829 3.2499 8.30829C2.71657 8.30829 2.29156 8.73329 2.29156 9.26662V10.7333C2.29156 11.2583 2.71657 11.6916 3.2499 11.6916C4.1999 11.6916 4.95823 12.0583 5.3249 12.7C5.69157 13.3416 5.63323 14.1833 5.15823 15C5.03323 15.2166 4.9999 15.475 5.06657 15.725C5.13323 15.975 5.29157 16.175 5.50823 16.3083L6.9499 17.1333C7.1249 17.2416 7.33323 17.2666 7.5249 17.2166C7.7249 17.1666 7.89157 17.0333 7.9999 16.8583L8.09157 16.7C8.56657 15.8833 9.25823 15.4083 9.9999 15.4083Z" fill="#7B7B7B"/>
</svg>
