<svg width="31" height="31" viewBox="0 0 31 31" fill="none" xmlns="http://www.w3.org/2000/svg">
<path opacity="0.4" d="M21.0405 2.80176H10.3739C5.74063 2.80176 2.97852 5.56388 2.97852 10.1971V20.851C2.97852 25.497 5.74063 28.2591 10.3739 28.2591H21.0278C25.661 28.2591 28.4231 25.497 28.4231 20.8637V10.1971C28.4358 5.56388 25.6737 2.80176 21.0405 2.80176Z" fill="#EBEBEB"/>
<path d="M15.7084 16.8035C14.9956 16.8035 14.4355 16.2308 14.4355 15.5307C14.4355 14.8306 15.0083 14.2578 15.7084 14.2578C16.4085 14.2578 16.9813 14.8306 16.9813 15.5307C16.9813 16.2308 16.4212 16.8035 15.7084 16.8035Z" fill="#292D32"/>
<path d="M20.8002 16.8035C20.0874 16.8035 19.5273 16.2308 19.5273 15.5307C19.5273 14.8306 20.1001 14.2578 20.8002 14.2578C21.5003 14.2578 22.0731 14.8306 22.0731 15.5307C22.0731 16.2308 21.513 16.8035 20.8002 16.8035Z" fill="#292D32"/>
<path d="M10.6166 16.8035C9.90381 16.8035 9.34375 16.2308 9.34375 15.5307C9.34375 14.8306 9.91654 14.2578 10.6166 14.2578C11.3167 14.2578 11.8895 14.8306 11.8895 15.5307C11.8895 16.2308 11.3294 16.8035 10.6166 16.8035Z" fill="#292D32"/>
</svg>
