<svg width="13" height="8" viewBox="0 0 13 8" fill="none" xmlns="http://www.w3.org/2000/svg">
<path d="M1.77453 7.65208C1.57319 7.65208 1.37185 7.5779 1.2129 7.41895C0.905596 7.11164 0.905596 6.603 1.2129 6.2957L4.60383 2.90474C4.77337 2.73519 4.99591 2.65042 5.23963 2.67161C5.47276 2.6928 5.68469 2.81996 5.82245 3.0213L6.9775 4.75917L10.7393 0.997325C11.0466 0.690019 11.5553 0.690019 11.8626 0.997325C12.1699 1.30463 12.1699 1.81327 11.8626 2.12058L7.41196 6.57121C7.24241 6.74076 7.01988 6.82553 6.77616 6.80434C6.54303 6.78315 6.33109 6.65598 6.19334 6.45465L5.03829 4.71678L2.33616 7.41895C2.1772 7.5779 1.97587 7.65208 1.77453 7.65208Z" fill="#16C098"/>
<path d="M11.3106 4.47265C10.8761 4.47265 10.5158 4.11236 10.5158 3.6779V2.3533H9.19121C8.75674 2.3533 8.39645 1.99302 8.39645 1.55855C8.39645 1.12408 8.75674 0.763794 9.19121 0.763794H11.3106C11.745 0.763794 12.1053 1.12408 12.1053 1.55855V3.6779C12.1053 4.11236 11.745 4.47265 11.3106 4.47265Z" fill="#16C098"/>
</svg>
