<svg width="35" height="35" viewBox="0 0 35 35" fill="none" xmlns="http://www.w3.org/2000/svg">
<rect x="0.0800781" y="0.29248" width="34.622" height="34.622" rx="12.2195" fill="#F7F5F0"/>
<path d="M28 18.62V20.68C28 21.24 27.54 21.7 26.97 21.7H25.04C23.96 21.7 22.97 20.91 22.88 19.83C22.82 19.2 23.06 18.61 23.48 18.2C23.85 17.82 24.36 17.6 24.92 17.6H26.97C27.54 17.6 28 18.06 28 18.62Z" fill="#1A2B88"/>
<path d="M21.38 19.96C21.29 18.91 21.67 17.88 22.43 17.13C23.07 16.48 23.96 16.1 24.92 16.1H25.49C25.77 16.1 26 15.87 25.96 15.59C25.69 13.65 24.01 12.15 22 12.15H12C9.79 12.15 8 13.94 8 16.15V23.15C8 25.36 9.79 27.15 12 27.15H22C24.02 27.15 25.69 25.65 25.96 23.71C26 23.43 25.77 23.2 25.49 23.2H25.04C23.14 23.2 21.54 21.78 21.38 19.96ZM19 17.9H13C12.59 17.9 12.25 17.57 12.25 17.15C12.25 16.73 12.59 16.4 13 16.4H19C19.41 16.4 19.75 16.74 19.75 17.15C19.75 17.56 19.41 17.9 19 17.9Z" fill="#1A2B88"/>
<path d="M20.21 9.97998C20.47 10.25 20.24 10.65 19.86 10.65H12.03C10.94 10.65 9.92003 10.97 9.07003 11.52C8.68003 11.77 8.15003 11.5 8.34003 11.07C8.90003 9.75998 10.21 8.84998 11.72 8.84998H17.34C18.5 8.84998 19.53 9.25998 20.21 9.97998Z" fill="#1A2B88"/>
</svg>
